<svg width="28" height="28" viewBox="0 0 28 28" fill="none" xmlns="http://www.w3.org/2000/svg">
<g clip-path="url(#clip0_5357_46878)">
<path d="M24.6834 3.82124L22.0188 1.06907C21.6915 0.733033 21.3005 0.46572 20.8685 0.282811C20.4366 0.0999024 19.9725 0.00508042 19.5034 0.00390625L14.0026 0.00390625C12.6584 0.0056032 11.3558 0.470678 10.3145 1.32074C9.27315 2.17081 8.55672 3.35389 8.28594 4.67057H8.16927C6.62274 4.67243 5.14009 5.2876 4.04653 6.38116C2.95297 7.47472 2.33779 8.95738 2.33594 10.5039V22.1706C2.33779 23.7171 2.95297 25.1998 4.04653 26.2933C5.14009 27.3869 6.62274 28.0021 8.16927 28.0039H15.1693C16.7158 28.0021 18.1985 27.3869 19.292 26.2933C20.3856 25.1998 21.0008 23.7171 21.0026 22.1706V22.0539C22.3193 21.7831 23.5024 21.0667 24.3524 20.0254C25.2025 18.984 25.6676 17.6815 25.6693 16.3372V6.25724C25.671 5.34773 25.3172 4.47354 24.6834 3.82124ZM15.1693 25.6706H8.16927C7.24101 25.6706 6.35077 25.3018 5.6944 24.6454C5.03802 23.9891 4.66927 23.0988 4.66927 22.1706V10.5039C4.66927 9.57565 5.03802 8.68541 5.6944 8.02903C6.35077 7.37266 7.24101 7.00391 8.16927 7.00391V16.3372C8.17112 17.8838 8.7863 19.3664 9.87986 20.46C10.9734 21.5535 12.4561 22.1687 14.0026 22.1706H18.6693C18.6693 23.0988 18.3005 23.9891 17.6441 24.6454C16.9878 25.3018 16.0975 25.6706 15.1693 25.6706ZM19.8359 19.8372H14.0026C13.0743 19.8372 12.1841 19.4685 11.5277 18.8121C10.8714 18.1557 10.5026 17.2655 10.5026 16.3372V5.83724C10.5026 4.90898 10.8714 4.01874 11.5277 3.36237C12.1841 2.70599 13.0743 2.33724 14.0026 2.33724H18.6693V4.67057C18.6693 5.28941 18.9151 5.8829 19.3527 6.32049C19.7903 6.75807 20.3838 7.00391 21.0026 7.00391H23.3359V16.3372C23.3359 17.2655 22.9672 18.1557 22.3108 18.8121C21.6544 19.4685 20.7642 19.8372 19.8359 19.8372Z" fill="#039D55"/>
</g>
<defs>
<clipPath id="clip0_5357_46878">
<rect width="28" height="28" fill="white"/>
</clipPath>
</defs>
</svg>
